<mxfile host="app.diagrams.net" agent="Mozilla/5.0 (Windows NT 10.0; Win64; x64) AppleWebKit/537.36 (KHTML, like Gecko) Chrome/130.0.0.0 Safari/537.36" version="24.8.0">
  <diagram name="Pagina-1" id="BcJWGKPKeZEPANybrBWA">
    <mxGraphModel dx="859" dy="477" grid="0" gridSize="10" guides="1" tooltips="1" connect="1" arrows="1" fold="1" page="0" pageScale="1" pageWidth="827" pageHeight="1169" math="0" shadow="0">
      <root>
        <mxCell id="0" />
        <mxCell id="1" parent="0" />
        <mxCell id="C0X81BvrRLIn2DtXsn1J-1" value="Ingresso" style="text;html=1;align=center;verticalAlign=middle;whiteSpace=wrap;rounded=0;fontSize=16;" vertex="1" parent="1">
          <mxGeometry x="133" y="150" width="60" height="30" as="geometry" />
        </mxCell>
        <mxCell id="C0X81BvrRLIn2DtXsn1J-2" value="Uscita&amp;nbsp;&lt;div&gt;desiderata&lt;/div&gt;" style="text;html=1;align=center;verticalAlign=middle;whiteSpace=wrap;rounded=0;fontSize=16;" vertex="1" parent="1">
          <mxGeometry x="133" y="212" width="60" height="30" as="geometry" />
        </mxCell>
        <mxCell id="C0X81BvrRLIn2DtXsn1J-3" value="Algoritmo" style="rounded=0;whiteSpace=wrap;html=1;fillColor=none;" vertex="1" parent="1">
          <mxGeometry x="318" y="141" width="89" height="48" as="geometry" />
        </mxCell>
        <mxCell id="C0X81BvrRLIn2DtXsn1J-4" value="check della&amp;nbsp;&lt;div&gt;correttezza&lt;/div&gt;" style="rounded=0;whiteSpace=wrap;html=1;fillColor=none;" vertex="1" parent="1">
          <mxGeometry x="318" y="203" width="89" height="48" as="geometry" />
        </mxCell>
        <mxCell id="C0X81BvrRLIn2DtXsn1J-5" value="Uscita controllata" style="text;html=1;align=center;verticalAlign=middle;whiteSpace=wrap;rounded=0;fontSize=16;" vertex="1" parent="1">
          <mxGeometry x="532" y="150" width="60" height="30" as="geometry" />
        </mxCell>
        <mxCell id="C0X81BvrRLIn2DtXsn1J-6" value="" style="endArrow=classic;html=1;rounded=0;fontSize=12;startSize=8;endSize=8;curved=1;exitX=1;exitY=0.5;exitDx=0;exitDy=0;entryX=0;entryY=0.5;entryDx=0;entryDy=0;" edge="1" parent="1" source="C0X81BvrRLIn2DtXsn1J-1" target="C0X81BvrRLIn2DtXsn1J-3">
          <mxGeometry width="50" height="50" relative="1" as="geometry">
            <mxPoint x="291" y="236" as="sourcePoint" />
            <mxPoint x="341" y="186" as="targetPoint" />
          </mxGeometry>
        </mxCell>
        <mxCell id="C0X81BvrRLIn2DtXsn1J-7" value="" style="endArrow=classic;html=1;rounded=0;fontSize=12;startSize=8;endSize=8;curved=1;exitX=1;exitY=0.5;exitDx=0;exitDy=0;" edge="1" parent="1" source="C0X81BvrRLIn2DtXsn1J-2" target="C0X81BvrRLIn2DtXsn1J-4">
          <mxGeometry width="50" height="50" relative="1" as="geometry">
            <mxPoint x="291" y="236" as="sourcePoint" />
            <mxPoint x="341" y="186" as="targetPoint" />
          </mxGeometry>
        </mxCell>
        <mxCell id="C0X81BvrRLIn2DtXsn1J-8" value="" style="endArrow=classic;html=1;rounded=0;fontSize=12;startSize=8;endSize=8;curved=1;exitX=1;exitY=0.5;exitDx=0;exitDy=0;entryX=0;entryY=0.5;entryDx=0;entryDy=0;" edge="1" parent="1">
          <mxGeometry width="50" height="50" relative="1" as="geometry">
            <mxPoint x="407" y="164.66" as="sourcePoint" />
            <mxPoint x="532" y="164.66" as="targetPoint" />
          </mxGeometry>
        </mxCell>
        <mxCell id="C0X81BvrRLIn2DtXsn1J-9" value="" style="endArrow=none;html=1;rounded=0;fontSize=12;startSize=8;endSize=8;curved=0;entryX=1;entryY=0.5;entryDx=0;entryDy=0;" edge="1" parent="1" target="C0X81BvrRLIn2DtXsn1J-4">
          <mxGeometry width="50" height="50" relative="1" as="geometry">
            <mxPoint x="479" y="165" as="sourcePoint" />
            <mxPoint x="383" y="189" as="targetPoint" />
            <Array as="points">
              <mxPoint x="479" y="227" />
            </Array>
          </mxGeometry>
        </mxCell>
      </root>
    </mxGraphModel>
  </diagram>
</mxfile>
